<svg xmlns="http://www.w3.org/2000/svg" xmlns:xlink="http://www.w3.org/1999/xlink" width="140" height="27" viewBox="0 0 140 27">
    <defs>
        <path id="a" d="M0 .193h25.988V26H0z"/>
        <path id="c" d="M.206.193h26.688V26H.206z"/>
        <path id="e" d="M.077.084h26.8v25.807H.076z"/>
    </defs>
    <g fill="none" fill-rule="evenodd">
        <path fill="#05C4E1" d="M89.794 2.459a.883.883 0 0 0 .12-.948.903.903 0 0 0-.816-.511H66.58c-.498 0-.902.4-.902.891v3.616c0 .492.404.891.902.891h12.732L64.205 24.542a.884.884 0 0 0-.119.947c.15.312.467.511.816.511h22.91c.498 0 .901-.4.901-.892v-3.615a.897.897 0 0 0-.902-.891H74.647L89.794 2.459z"/>
        <g transform="translate(0 1)">
            <mask id="b" fill="#fff">
                <use xlink:href="#a"/>
            </mask>
            <path fill="#FEFEFE" d="M25.988 13.097c0-.62-.057-1.281-.175-2.023a.899.899 0 0 0-.891-.753h-9.317c-.498 0-.901.4-.901.892v3.767c0 .492.403.892.901.892h4.235a7.28 7.28 0 0 1-6.791 4.581c-4.103 0-7.44-3.3-7.44-7.356 0-4.058 3.337-7.358 7.44-7.358 1.981 0 3.846.763 5.252 2.147a.91.91 0 0 0 1.274-.001l2.69-2.66a.886.886 0 0 0 0-1.263A13.04 13.04 0 0 0 13.049.193C5.854.193 0 5.982 0 13.097S5.854 26 13.05 26c7.134 0 12.939-5.788 12.939-12.903" mask="url(#b)"/>
        </g>
        <g transform="translate(38 1)">
            <mask id="d" fill="#fff">
                <use xlink:href="#c"/>
            </mask>
            <path fill="#FEFEFE" d="M26.894 13.097c0-.62-.059-1.281-.18-2.023a.916.916 0 0 0-.915-.753h-9.567c-.511 0-.926.4-.926.892v3.767c0 .492.415.892.926.892h4.35c-1.127 2.746-3.85 4.581-6.976 4.581-4.213 0-7.64-3.3-7.64-7.356 0-4.058 3.427-7.358 7.64-7.358 2.036 0 3.95.763 5.394 2.147a.952.952 0 0 0 1.308-.001l2.764-2.66a.875.875 0 0 0 .27-.632.875.875 0 0 0-.271-.63c-2.53-2.43-5.891-3.77-9.465-3.77-7.388 0-13.4 5.789-13.4 12.904S6.218 26 13.606 26c7.327 0 13.288-5.788 13.288-12.903" mask="url(#d)"/>
        </g>
        <path fill="#FEFEFE" d="M35 25.108V1.892A.902.902 0 0 0 34.087 1h-4.174c-.505 0-.913.4-.913.892v23.216c0 .493.408.892.913.892h4.174c.505 0 .913-.4.913-.892"/>
        <path fill="#05C4E1" d="M113 6.452C110.76 2.6 106.624 0 101.886 0 94.781 0 89 5.832 89 13s5.78 13 12.886 13c4.738 0 8.875-2.6 11.114-6.452A14.927 14.927 0 0 1 111.481 13c0-2.35.556-4.568 1.519-6.548M109.234 13c0 4.088-3.296 7.413-7.348 7.413S94.538 17.088 94.538 13c0-4.087 3.296-7.412 7.348-7.412s7.348 3.325 7.348 7.412"/>
        <g transform="translate(113)">
            <mask id="f" fill="#fff">
                <use xlink:href="#e"/>
            </mask>
            <path fill="#05C4E1" d="M26.876 12.988c0-7.115-6.01-12.904-13.4-12.904C6.088.084.077 5.873.077 12.988c0 7.114 6.011 12.903 13.4 12.903 7.388 0 13.4-5.789 13.4-12.903m-5.76 0c0 4.057-3.428 7.357-7.64 7.357-4.214 0-7.641-3.3-7.641-7.357 0-4.058 3.427-7.358 7.64-7.358 4.213 0 7.64 3.3 7.64 7.358" mask="url(#f)"/>
        </g>
    </g>
</svg>
